HIERARCHY
ROOT root
{
	OFFSET	0	13.1	24.9
	CHANNELS 6  Xposition Yposition Zposition Xrotation Yrotation Zrotation
	JOINT spine_1
	{
		OFFSET	0	9.99999	0
		CHANNELS 3  Xrotation Yrotation Zrotation
		JOINT spine_2
		{
			OFFSET	0	112	-10
			CHANNELS 3  Xrotation Yrotation Zrotation
			JOINT spine_3
			{
				OFFSET	0	206.5	19.3
				CHANNELS 3  Xrotation Yrotation Zrotation
				JOINT spine_4
				{
					OFFSET	0	110.4	14.6
					CHANNELS 3  Xrotation Yrotation Zrotation
					JOINT neck_1
					{
						OFFSET	0	71.8	-50.3
						CHANNELS 3  Xrotation Yrotation Zrotation
						JOINT neck_2
						{
							OFFSET	0	86.2	-25.8
							CHANNELS 3  Xrotation Yrotation Zrotation
							JOINT head_ee
							{
								OFFSET	0	179.8	-8.7
								CHANNELS 3  Xrotation Yrotation Zrotation
								End Site
								{
									OFFSET	1	0	0
								}
							}
						}
					}
					JOINT left_clavicle
					{
						OFFSET	-43.2	22.4	-70.8
						CHANNELS 3  Xrotation Yrotation Zrotation
						JOINT left_shoulder
						{
							OFFSET	-93.9	-5.79999	48.7
							CHANNELS 3  Xrotation Yrotation Zrotation
							JOINT left_elbow
							{
								OFFSET	-291.4	-30.8	15.2
								CHANNELS 3  Xrotation Yrotation Zrotation
								JOINT left_lowarm_twist
								{
									OFFSET	-110.7	-3.89999	13.6
									CHANNELS 3  Xrotation Yrotation Zrotation
									JOINT left_hand
									{
										OFFSET	-110.7	-3.89999	13.6
										CHANNELS 3  Xrotation Yrotation Zrotation
										JOINT left_ee
										{
											OFFSET	-80.8	-5.10001	12.1
											CHANNELS 3  Xrotation Yrotation Zrotation
											End Site
											{
												OFFSET	1	0	0
											}
										}
									}
								}
							}
						}
					}
					JOINT right_clavicle
					{
						OFFSET	43.2	22.4	-70.8
						CHANNELS 3  Xrotation Yrotation Zrotation
						JOINT right_shoulder
						{
							OFFSET	93.9	-5.79999	48.7
							CHANNELS 3  Xrotation Yrotation Zrotation
							JOINT right_elbow
							{
								OFFSET	291.4	-30.8	15.2
								CHANNELS 3  Xrotation Yrotation Zrotation
								JOINT right_lowarm_twist
								{
									OFFSET	110.7	-3.89999	13.6
									CHANNELS 3  Xrotation Yrotation Zrotation
									JOINT right_hand
									{
										OFFSET	110.7	-3.89999	13.6
										CHANNELS 3  Xrotation Yrotation Zrotation
										JOINT right_ee
										{
											OFFSET	80.8	-5.10001	12.1
											CHANNELS 3  Xrotation Yrotation Zrotation
											End Site
											{
												OFFSET	1	0	0
											}
										}
									}
								}
							}
						}
					}
				}
			}
		}
	}
	JOINT left_hip
	{
		OFFSET	-82.8	-127.5	0.300001
		CHANNELS 3  Xrotation Yrotation Zrotation
		JOINT left_knee
		{
			OFFSET	-28.2	-396.7	2.2
			CHANNELS 3  Xrotation Yrotation Zrotation
			JOINT left_ankle
			{
				OFFSET	-11.7	-411.3	35.4
				CHANNELS 3  Xrotation Yrotation Zrotation
				JOINT left_toes
				{
					OFFSET	0	-60	-88.6
					CHANNELS 3  Xrotation Yrotation Zrotation
					JOINT left_foot_ee
					{
						OFFSET	-22.5	-16.5	-42.2
						CHANNELS 3  Xrotation Yrotation Zrotation
						End Site
						{
							OFFSET	1	0	0
						}
					}
				}
			}
		}
	}
	JOINT right_hip
	{
		OFFSET	82.8	-127.5	0.300001
		CHANNELS 3  Xrotation Yrotation Zrotation
		JOINT right_knee
		{
			OFFSET	28.2	-396.7	2.2
			CHANNELS 3  Xrotation Yrotation Zrotation
			JOINT right_ankle
			{
				OFFSET	11.7	-411.3	35.4
				CHANNELS 3  Xrotation Yrotation Zrotation
				JOINT right_toes
				{
					OFFSET	0	-60	-88.6
					CHANNELS 3  Xrotation Yrotation Zrotation
					JOINT right_foot_ee
					{
						OFFSET	22.5	-16.5	-42.2
						CHANNELS 3  Xrotation Yrotation Zrotation
						End Site
						{
							OFFSET	1	0	0
						}
					}
				}
			}
		}
	}
}
MOTION
Frames: 12
Frame Time: 0.02
391.555 721.904 -1204.45 -15.6199080442 -71.8695394058 -16.2120216134 1.75635 0.33819 0.666747 1.75655 0.295079 0.686914 1.76015 0.166597 0.728811 1.75951 0.279605 0.693356 -7.96031 -8.98471 -5.42103 -7.9057 -12.9423 -7.31091 -0.0 0.0 -0.0 5.36694 23.8149 10.1109 -20.467 -5.84183 59.9559 0.226807 -6.41067 0.0127017 0.947928 0.0324338 -0.116721 -3.9388 28.7153 -10.0799 -0.0 0.0 -0.0 8.22538 -0.252897 -16.0344 -29.9605 18.7665 -72.4776 0.202988 5.74218 -0.0101803 16.2659 -0.283612 2.05151 3.50623 -30.2709 -32.3017 0.0 0.0 0.0 9.52069 10.2442 -5.23774 -14.0724 0.319148 2.13059 36.5546 -10.7215 -4.73126 -13.34 0.0 0.0 -0.0 0.0 -0.0 -0.180067 -19.2426 4.02028 5.8034 0.282103 0.845252 29.7726 25.7565 4.54686 -19.8471 0.0 0.0 0.0 0.0 0.0 
390.970515379 725.499 -1201.57652167 -17.4710211471 -72.1358704197 -18.3213060643 1.72702 0.364177 0.825377 1.72735 0.31092 0.846876 1.73202 0.152949 0.889084 1.73104 0.291439 0.853775 -8.47417 -8.34087 -5.70808 -8.41271 -11.6147 -7.49549 -0.0 0.0 -0.0 5.54401 23.7783 10.3603 -19.9996 -6.01029 59.3621 0.223282 -6.31183 0.0123112 1.53244 0.0514676 -0.188951 -3.44611 28.6706 -7.41636 -0.0 0.0 -0.0 8.53817 -0.179159 -16.6656 -29.7542 18.6272 -73.1123 0.207652 5.87321 -0.0106522 16.2833 -0.283601 2.05373 3.51798 -30.2688 -32.3786 0.0 0.0 0.0 9.78194 10.9603 -4.68052 -13.5886 0.316914 2.05639 35.6376 -10.9731 -4.64929 -13.0514 0.0 0.0 -0.0 0.0 -0.0 0.920364 -19.5459 4.17496 5.10692 0.243733 0.745345 29.8038 28.8637 4.71539 -20.9742 0.0 0.0 0.0 0.0 0.0 
423.124745139 722.096 -1229.6497796 -24.3850607378 -70.4706805761 -24.7881522698 2.3763 0.429539 0.840382 2.37661 0.375195 0.866009 2.3823 0.223147 0.917029 2.38131 0.365169 0.870284 -6.44793 -2.7175 -1.92012 -6.43857 -3.63086 -2.45615 -0.0 0.0 -0.0 5.60998 19.5748 10.66 -16.6826 -7.50163 61.3468 0.248266 -7.0114 0.0152094 5.14456 0.152641 -0.639188 -1.69882 28.771 2.05201 -0.0 0.0 -0.0 10.0221 -3.33255 -19.5022 -23.6522 19.8539 -68.607 0.194358 5.49958 -0.00933495 17.0026 -0.282575 2.1456 3.43935 -30.4691 -31.8866 0.0 0.0 0.0 13.784 18.7267 -5.3173 -16.0986 0.321692 2.44144 36.0532 -24.1953 -5.171 -12.6017 0.0 0.0 -0.0 0.0 -0.0 4.19831 -25.1006 5.48915 1.86923 0.0814751 0.275248 31.1215 27.7435 4.8128 -31.4374 0.0 0.0 0.0 0.0 0.0 
423.520076214 722.096 -1229.14638845 -25.4894397919 -71.2939770787 -25.9569609113 2.3763 0.429539 0.840382 2.37661 0.375195 0.866009 2.3823 0.223147 0.917029 2.38131 0.365169 0.870284 -6.44793 -2.7175 -1.92012 -6.43857 -3.63086 -2.45615 -0.0 0.0 -0.0 5.60998 19.5748 10.66 -16.6826 -7.50163 61.3468 0.248266 -7.0114 0.0152094 5.14456 0.152641 -0.639188 -1.69882 28.771 2.05201 -0.0 0.0 -0.0 10.0221 -3.33255 -19.5022 -23.6522 19.8539 -68.607 0.194358 5.49958 -0.00933495 17.0026 -0.282575 2.1456 3.43935 -30.4691 -31.8866 0.0 0.0 0.0 13.784 18.7267 -5.3173 -16.0986 0.321692 2.44144 36.0532 -24.1953 -5.171 -12.6017 0.0 0.0 -0.0 0.0 -0.0 4.19831 -25.1006 5.48915 1.86923 0.0814751 0.275248 31.1215 27.7435 4.8128 -31.4374 0.0 0.0 0.0 0.0 0.0 
423.968763458 722.096 -1228.55447341 -26.9012775599 -72.2394014543 -27.4433752945 2.3763 0.429539 0.840382 2.37661 0.375195 0.866009 2.3823 0.223147 0.917029 2.38131 0.365169 0.870284 -6.44793 -2.7175 -1.92012 -6.43857 -3.63086 -2.45615 -0.0 0.0 -0.0 5.60998 19.5748 10.66 -16.6826 -7.50163 61.3468 0.248266 -7.0114 0.0152094 5.14456 0.152641 -0.639188 -1.69882 28.771 2.05201 -0.0 0.0 -0.0 10.0221 -3.33255 -19.5022 -23.6522 19.8539 -68.607 0.194358 5.49958 -0.00933495 17.0026 -0.282575 2.1456 3.43935 -30.4691 -31.8866 0.0 0.0 0.0 13.784 18.7267 -5.3173 -16.0986 0.321692 2.44144 36.0532 -24.1953 -5.171 -12.6017 0.0 0.0 -0.0 0.0 -0.0 4.19831 -25.1006 5.48915 1.86923 0.0814751 0.275248 31.1215 27.7435 4.8128 -31.4374 0.0 0.0 0.0 0.0 0.0 
436.630557554 722.394 -1239.78489085 -27.6296360688 -71.603412865 -27.5723343454 2.78133 0.411991 0.592176 2.78145 0.373475 0.617192 2.78548 0.268295 0.669645 2.78504 0.370684 0.618872 -4.60962 -2.3479 -1.86095 -4.59979 -2.89732 -2.29622 -0.0 0.0 -0.0 5.7396 19.1204 10.8778 -16.621 -7.58122 61.7547 0.23889 -6.74909 0.0140862 5.76274 0.167101 -0.716831 -1.58516 28.8207 2.68523 -0.0 0.0 -0.0 9.89906 -3.21574 -19.2632 -22.4607 20.6399 -68.1938 0.193893 5.48651 -0.00929044 16.457 -0.283459 2.07591 3.36718 -30.3922 -31.4094 0.0 0.0 0.0 13.2887 19.2546 -5.61919 -16.4028 0.321125 2.48811 35.6693 -24.7664 -5.16062 -11.5102 0.0 0.0 -0.0 0.0 -0.0 4.4492 -25.5835 5.68709 0.835282 0.0352957 0.123318 32.7625 27.4644 4.98922 -31.8404 0.0 0.0 0.0 0.0 0.0 
437.28943921 722.394 -1238.92784028 -29.2215791065 -72.554590319 -29.2453854398 2.78133 0.411991 0.592176 2.78145 0.373475 0.617192 2.78548 0.268295 0.669645 2.78504 0.370684 0.618872 -4.60962 -2.3479 -1.86095 -4.59979 -2.89732 -2.29622 -0.0 0.0 -0.0 5.7396 19.1204 10.8778 -16.621 -7.58122 61.7547 0.23889 -6.74909 0.0140862 5.76274 0.167101 -0.716831 -1.58516 28.8207 2.68523 -0.0 0.0 -0.0 9.89906 -3.21574 -19.2632 -22.4607 20.6399 -68.1938 0.193893 5.48651 -0.00929044 16.457 -0.283459 2.07591 3.36718 -30.3922 -31.4094 0.0 0.0 0.0 13.2887 19.2546 -5.61919 -16.4028 0.321125 2.48811 35.6693 -24.7664 -5.16062 -11.5102 0.0 0.0 -0.0 0.0 -0.0 4.4492 -25.5835 5.68709 0.835282 0.0352957 0.123318 32.7625 27.4644 4.98922 -31.8404 0.0 0.0 0.0 0.0 0.0 
450.100879701 716.832 -1250.28115174 -29.6775815022 -71.7367340438 -28.4207053715 3.34445 0.386339 0.368488 3.34445 0.362108 0.392325 3.34694 0.297945 0.443023 3.34685 0.364173 0.390409 -2.68011 -2.09453 -1.80198 -2.67064 -2.38562 -2.17524 -0.0 0.0 -0.0 5.86749 18.799 11.0896 -16.3927 -7.66187 62.2356 0.254379 -7.18227 0.0159648 6.35817 0.180235 -0.791758 -1.44607 28.809 3.42755 -0.0 0.0 -0.0 9.83887 -3.24146 -19.1408 -20.8364 21.4393 -68.363 0.219994 6.21961 -0.0119523 16.0529 -0.283686 2.0243 3.32804 -30.3322 -31.1494 0.0 0.0 0.0 12.7579 19.6416 -5.51917 -16.6482 0.320487 2.52576 35.3364 -24.6763 -5.1211 -10.7464 0.0 0.0 -0.0 0.0 -0.0 4.42618 -25.8795 5.81749 0.0740168 0.00305473 0.0109478 34.0998 27.2473 5.1276 -32.1266 0.0 0.0 0.0 0.0 0.0 
451.051958751 716.832 -1249.0395324 -31.5971490423 -72.7739183023 -30.4360580626 3.34445 0.386339 0.368488 3.34445 0.362108 0.392325 3.34694 0.297945 0.443023 3.34685 0.364173 0.390409 -2.68011 -2.09453 -1.80198 -2.67064 -2.38562 -2.17524 -0.0 0.0 -0.0 5.86749 18.799 11.0896 -16.3927 -7.66187 62.2356 0.254379 -7.18227 0.0159648 6.35817 0.180235 -0.791758 -1.44607 28.809 3.42755 -0.0 0.0 -0.0 9.83887 -3.24146 -19.1408 -20.8364 21.4393 -68.363 0.219994 6.21961 -0.0119523 16.0529 -0.283686 2.0243 3.32804 -30.3322 -31.1494 0.0 0.0 0.0 12.7579 19.6416 -5.51917 -16.6482 0.320487 2.52576 35.3364 -24.6763 -5.1211 -10.7464 0.0 0.0 -0.0 0.0 -0.0 4.42618 -25.8795 5.81749 0.0740168 0.00305473 0.0109478 34.0998 27.2473 5.1276 -32.1266 0.0 0.0 0.0 0.0 0.0 
450.896706524 716.832 -1249.24594141 -31.264146877 -72.60408904 -30.0872569578 3.34445 0.386339 0.368488 3.34445 0.362108 0.392325 3.34694 0.297945 0.443023 3.34685 0.364173 0.390409 -2.68011 -2.09453 -1.80198 -2.67064 -2.38562 -2.17524 -0.0 0.0 -0.0 5.86749 18.799 11.0896 -16.3927 -7.66187 62.2356 0.254379 -7.18227 0.0159648 6.35817 0.180235 -0.791758 -1.44607 28.809 3.42755 -0.0 0.0 -0.0 9.83887 -3.24146 -19.1408 -20.8364 21.4393 -68.363 0.219994 6.21961 -0.0119523 16.0529 -0.283686 2.0243 3.32804 -30.3322 -31.1494 0.0 0.0 0.0 12.7579 19.6416 -5.51917 -16.6482 0.320487 2.52576 35.3364 -24.6763 -5.1211 -10.7464 0.0 0.0 -0.0 0.0 -0.0 4.42618 -25.8795 5.81749 0.0740168 0.00305473 0.0109478 34.0998 27.2473 5.1276 -32.1266 0.0 0.0 0.0 0.0 0.0 
451.109609553 716.832 -1248.96250365 -31.7229090201 -72.8370272146 -30.567701614 3.34445 0.386339 0.368488 3.34445 0.362108 0.392325 3.34694 0.297945 0.443023 3.34685 0.364173 0.390409 -2.68011 -2.09453 -1.80198 -2.67064 -2.38562 -2.17524 -0.0 0.0 -0.0 5.86749 18.799 11.0896 -16.3927 -7.66187 62.2356 0.254379 -7.18227 0.0159648 6.35817 0.180235 -0.791758 -1.44607 28.809 3.42755 -0.0 0.0 -0.0 9.83887 -3.24146 -19.1408 -20.8364 21.4393 -68.363 0.219994 6.21961 -0.0119523 16.0529 -0.283686 2.0243 3.32804 -30.3322 -31.1494 0.0 0.0 0.0 12.7579 19.6416 -5.51917 -16.6482 0.320487 2.52576 35.3364 -24.6763 -5.1211 -10.7464 0.0 0.0 -0.0 0.0 -0.0 4.42618 -25.8795 5.81749 0.0740168 0.00305473 0.0109478 34.0998 27.2473 5.1276 -32.1266 0.0 0.0 0.0 0.0 0.0 
477.287048944 701.82 -1273.51198798 -39.2886840478 -76.5629913043 -37.8642743695 3.77435 0.294491 0.0716012 3.77431 0.289338 0.0901955 3.77479 0.273156 0.131293 3.77488 0.290463 0.0865055 -4.63715 -0.94905 -1.75105 -4.62881 -0.415485 -1.94992 -0.0 0.0 -0.0 5.81862 19.3385 10.989 -14.5837 -9.00502 63.4742 0.6423 -17.6499 0.099721 9.2205 0.232469 -1.15362 -0.72675 28.5346 7.20142 -0.0 0.0 -0.0 9.12681 -5.86653 -17.564 -21.4196 23.8653 -65.8754 0.347718 9.77346 -0.0297289 15.4621 -0.283362 1.94884 4.60813 -29.9681 -39.9708 0.0 0.0 0.0 12.7027 20.0001 -6.07376 -23.6711 0.234017 3.59922 38.8248 -18.4526 -5.1832 -7.20277 0.0 0.0 -0.0 0.0 -0.0 5.30822 -27.7684 6.83996 -4.88718 -0.170143 -0.730511 38.1183 24.5579 5.39675 -32.4782 0.0 0.0 0.0 0.0 0.0 
